<svg xmlns="http://www.w3.org/2000/svg" version="1.1" xmlns:xlink="http://www.w3.org/1999/xlink" width="512"
    height="512" x="0" y="0" viewBox="0 0 60 60" style="enable-background:new 0 0 512 512" xml:space="preserve"
    class="">
    <g>
        <path
            d="m59.94 55.38-4.087-11.388a1 1 0 0 0-.941-.662H42.433a3.198 3.198 0 0 0-1.12-2.345c.592-1.96.16-5.568-2.979-6.349l-6.102-2.856-3.43-9.512c3.238-.467 4.85-6.357 4.925-7.126v-2.9a4.965 4.965 0 0 0-4.96-4.96h-2.88a4.965 4.965 0 0 0-4.96 4.96v2.9a4.71 4.71 0 0 0 .986 2.814 6.035 6.035 0 0 0-4.282 2.526c-.74 1.289-2.882 10.61-2.63 18.054a7.263 7.263 0 0 0 2.018 4.794H9.96a1.001 1.001 0 0 0-.916.6l-4.96 11.388a1 1 0 0 0 .918 1.4h53.996a1.008 1.008 0 0 0 .942-1.339zM39.19 37.616a3.937 3.937 0 0 1 .279 2.395 36.327 36.327 0 0 0-2.933-1.128l.875-2.472a2.842 2.842 0 0 1 1.779 1.205zM28.866 20.158a1.29 1.29 0 0 1-1.132.05c-1.592-.851-3.881-2.525-4.589-4.066h8.246c-.539 1.584-1.456 3.461-2.525 4.016zm-5.939-7.915a2.963 2.963 0 0 1 2.96-2.96h2.88a2.963 2.963 0 0 1 2.96 2.96v1.9h-8.8zM17 38.468c-.244-7.228 1.83-16.03 2.366-16.99.79-1.374 3.277-1.684 4.17-1.687a29.711 29.711 0 0 0 2.98 2.029l3.977 11.03a.997.997 0 0 0 .517.565l4.582 2.145-.96 2.718a69.78 69.78 0 0 0-5.406-1.365.966.966 0 0 1-.594-.39l-3.936-5.541a1 1 0 0 0-1.63 1.158l3.934 5.54a2.963 2.963 0 0 0 1.816 1.19 52.218 52.218 0 0 1 10.493 3.268c.458.205 1 .426 1.08.979.36 1.934.629 6.25-1.69 6.778H22.597a.984.984 0 0 1-.984-.98c.008-.744-.18-1.815.806-1.998l7.621-1.404c.523-.182 1.095-.557 1.095-1.183a1 1 0 0 0-1-1h-9.386a5.165 5.165 0 0 1-3.749-4.862zm2.624 9.293a3.786 3.786 0 0 0-3.705 1.009c-.945 1.098-1.1 1.13-1.872 1.13-.733-.206-.655-1.261-.21-1.72l2.555-2.85c.224-.002 4.592.001 4.667 0a2.975 2.975 0 0 0-1.435 2.432zM6.528 54.718l4.088-9.387h3.09c-.915 1.047-2.421 2.357-2.204 3.914.33 3.424 4.256 3.344 5.931.83.472-.658 1.661-.317 2.323-.292a2.978 2.978 0 0 0 2.84 2.113H38.7a2.964 2.964 0 0 0 1.953-.715c1.363-1.191 2.02-3.157 1.968-5.85h11.588l3.37 9.387z"
            fill="#000000" opacity="1" data-original="#000000" class=""></path>
    </g>
</svg>